<svg width="24" height="24" viewBox="0 0 24 24" fill="none" xmlns="http://www.w3.org/2000/svg">
<path fill-rule="evenodd" clip-rule="evenodd" d="M11.999 1C5.926 1 1 5.925 1 12C1 16.86 4.152 20.983 8.523 22.437C9.073 22.539 9.273 22.199 9.273 21.907C9.273 21.647 9.264 20.955 9.259 20.037C6.199 20.701 5.553 18.562 5.553 18.562C5.053 17.292 4.332 16.952 4.332 16.952C3.333 16.271 4.407 16.284 4.407 16.284C5.512 16.362 6.092 17.418 6.092 17.418C7.073 19.098 8.667 18.613 9.294 18.332C9.394 17.622 9.678 17.137 9.992 16.862C7.55 16.584 4.982 15.64 4.982 11.425C4.982 10.225 5.41 9.242 6.114 8.473C6 8.195 5.623 7.076 6.222 5.563C6.222 5.563 7.145 5.266 9.247 6.69C10.1443 6.44571 11.07 6.32129 12 6.32C12.9303 6.32066 13.8565 6.44509 14.754 6.69C16.854 5.266 17.776 5.562 17.776 5.562C18.376 7.076 17.999 8.195 17.886 8.473C18.591 9.242 19.016 10.224 19.016 11.425C19.016 15.651 16.444 16.581 13.994 16.853C14.389 17.193 14.741 17.863 14.741 18.89C14.741 20.36 14.727 21.547 14.727 21.907C14.727 22.202 14.926 22.544 15.483 22.437C19.851 20.979 23 16.859 23 12C23 5.925 18.074 1 11.999 1Z" fill="#DADADD"/>
</svg>
