<svg width="181" height="81" viewBox="0 0 181 81" fill="none" xmlns="http://www.w3.org/2000/svg">
<path fill-rule="evenodd" clip-rule="evenodd" d="M2.13567 2.22931C3.50356 0.860339 5.35856 0.0912921 7.29275 0.0912921C9.22694 0.0912921 11.0819 0.860339 12.4498 2.22931L40.1171 29.927L67.7844 2.22931C68.4573 1.53187 69.2622 0.975559 70.1521 0.592852C71.0421 0.210145 71.9992 0.00870124 72.9678 0.000275714C73.9363 -0.00814981 74.8968 0.17661 75.7932 0.543776C76.6897 0.910943 77.5041 1.45316 78.189 2.1388C78.8739 2.82443 79.4155 3.63975 79.7823 4.53718C80.149 5.4346 80.3336 6.39617 80.3252 7.36577C80.3167 8.33536 80.1155 9.29357 79.7332 10.1845C79.3509 11.0754 78.7953 11.8812 78.0986 12.5548L50.4313 40.2524L78.0986 67.9501C79.4273 69.3273 80.1625 71.1719 80.1459 73.0866C80.1293 75.0012 79.3621 76.8327 78.0097 78.1866C76.6573 79.5405 74.8278 80.3085 72.9152 80.3252C71.0027 80.3418 69.1601 79.6058 67.7844 78.2756L40.1171 50.5779L12.4498 78.2756C11.0741 79.6058 9.23154 80.3418 7.319 80.3252C5.40645 80.3085 3.57695 79.5405 2.22453 78.1866C0.872105 76.8327 0.104969 75.0012 0.0883497 73.0866C0.0717302 71.1719 0.806958 69.3273 2.13567 67.9501L29.803 40.2524L2.13567 12.5548C0.768204 11.1854 0 9.32836 0 7.39204C0 5.45573 0.768204 3.5987 2.13567 2.22931Z" fill="#7D45F5"/>
<path d="M140.837 0C118.627 0 100.675 17.9527 100.675 40.1627C100.675 62.3727 118.627 80.3254 140.837 80.3254C163.047 80.3254 181 62.3727 181 40.1627C181 17.9527 163.047 0 140.837 0ZM140.837 68.4826C123.085 68.4826 112.003 57.9146 112.003 40.1627C112.003 22.4108 123.085 10.813 140.837 10.813C158.589 10.813 169.672 22.4108 169.672 40.1627C169.672 57.9146 158.589 68.4826 140.837 68.4826Z" fill="#EA335F"/>
</svg>
